<?xml version="1.0" encoding="utf-8"?>
<!-- Generator: Adobe Illustrator 17.1.0, SVG Export Plug-In . SVG Version: 6.00 Build 0)  -->
<!DOCTYPE svg PUBLIC "-//W3C//DTD SVG 1.1//EN" "http://www.w3.org/Graphics/SVG/1.1/DTD/svg11.dtd">
<svg version="1.1" xmlns="http://www.w3.org/2000/svg" xmlns:xlink="http://www.w3.org/1999/xlink" x="0px" y="0px"
	 viewBox="0 0 598 721.22" enable-background="new 0 0 598 721.22" xml:space="preserve">
<g id="bracket">
	<path fill="#848588" d="M1,360.646c36.935,22.618,44.194,65.115,47.809,108.634c2.349,28.274,1.944,57.171,0.643,85.63
		c-1.786,39.074-1.231,77.014,15.697,111.521c22.038,29.832,49.452,46.64,81.171,46.795c21.302,0.104,42.592-6.778,63.947-9.858
		c16.247-2.344,32.567-4.194,48.895-5.212c15.649-0.976,30.096,3.358,40.158,22.067c9.355-17.719,22.826-23.561,37.456-21.833
		c30.824,3.64,61.487,9.427,92.271,13.689c41.981,5.813,78.768-6.536,105.812-51.37c0.711-1.179,2.124-1.667,3.21-2.478
		c12.718-36.35,12.545-74.168,10.075-113.073c-2.476-38.993-1.706-78.301,7.233-116.444c6.709-28.629,16.803-56.237,41.146-69.127
		l0.476-0.001c-0.081-0.042-0.157-0.087-0.238-0.129c0.081-0.042,0.157-0.088,0.238-0.13l-0.475,0.001
		c-24.343-12.86-34.437-38.194-41.147-66.823c-8.938-38.143-9.709-77.451-7.233-116.444c2.47-38.905,2.644-76.723-10.075-113.073
		c-1.086-0.81-2.499-1.298-3.21-2.478c-27.044-44.834-63.831-57.183-105.812-51.37c-30.784,4.263-61.448,10.049-92.271,13.689
		c-14.63,1.728-28.101-4.114-37.456-21.833c-10.062,18.708-24.509,23.043-40.158,22.067c-16.327-1.019-32.647-2.869-48.895-5.212
		c-21.355-3.08-42.645-9.962-63.947-9.858C114.602,8.15,87.188,24.958,65.15,54.79c-16.929,34.507-17.484,72.447-15.697,111.521
		c1.301,28.459,1.705,57.356-0.643,85.63C45.194,295.458,37.935,337.956,1,360.574"/>
</g>
</svg>
