<?xml version="1.0" encoding="utf-8"?>
<!-- Generator: Adobe Illustrator 17.1.0, SVG Export Plug-In . SVG Version: 6.00 Build 0)  -->
<!DOCTYPE svg PUBLIC "-//W3C//DTD SVG 1.1//EN" "http://www.w3.org/Graphics/SVG/1.1/DTD/svg11.dtd">
<svg version="1.1" xmlns="http://www.w3.org/2000/svg" xmlns:xlink="http://www.w3.org/1999/xlink" x="0px" y="0px"
	 viewBox="0 0 569.6 785.71" enable-background="new 0 0 569.6 785.71" xml:space="preserve">
<g id="concave">
	<g>
		<path fill="#848588" d="M568.171,16.444c2.328-11.874-5.097-18.277-16.499-14.229c0,0-142.112,50.451-266.872,51.758
			C160.04,52.666,17.928,2.215,17.928,2.215C6.525-1.833-0.899,4.57,1.429,16.444c0,0,54.366,277.278,54.906,376.411
			c-0.54,99.133-54.906,376.411-54.906,376.411c-2.328,11.874,5.097,18.277,16.499,14.229c0,0,142.111-50.451,266.872-51.758
			c124.76,1.307,266.872,51.758,266.872,51.758c11.403,4.048,18.828-2.355,16.499-14.229c0,0-54.366-277.278-54.906-376.411
			C513.805,293.722,568.171,16.444,568.171,16.444z"/>
	</g>
</g>
</svg>
