<?xml version="1.0" encoding="utf-8"?>
<!-- Generator: Adobe Illustrator 17.1.0, SVG Export Plug-In . SVG Version: 6.00 Build 0)  -->
<!DOCTYPE svg PUBLIC "-//W3C//DTD SVG 1.1//EN" "http://www.w3.org/Graphics/SVG/1.1/DTD/svg11.dtd">
<svg version="1.1" xmlns="http://www.w3.org/2000/svg" xmlns:xlink="http://www.w3.org/1999/xlink" x="0px" y="0px"
	 viewBox="0 0 598 777" enable-background="new 0 0 598 777" xml:space="preserve">
<g id="knob">
	<path fill="#848588" d="M546.412,646.813V130.187C575.396,123.453,597,97.484,597,66.452c0-36.148-29.303-65.451-65.451-65.451
		c-31.955,0-58.546,22.906-64.287,53.191H130.739C124.997,23.907,98.406,1.001,66.451,1.001C30.304,1.001,1,30.304,1,66.452
		c0,31.493,22.246,57.784,51.88,64.033v516.03C23.246,652.765,1,679.055,1,710.548c0,36.148,29.304,65.451,65.451,65.451
		c32.798,0,59.959-24.125,64.711-55.597h335.676c4.752,31.472,31.913,55.597,64.711,55.597c36.148,0,65.451-29.303,65.451-65.451
		C597,679.516,575.396,653.547,546.412,646.813z"/>
</g>
</svg>
